<svg width="17" height="16" viewBox="0 0 17 16" fill="none" xmlns="http://www.w3.org/2000/svg">
<path fill-rule="evenodd" clip-rule="evenodd" d="M16.4248 8C16.4248 3.58172 12.8441 2.17145e-06 8.4248 0C4.00653 0 0.424805 3.58075 0.424805 8C0.424803 12.4183 4.00555 16 8.4248 16C12.8431 16 16.4248 12.4193 16.4248 8ZM6.76133 12.8256C6.76133 13.0294 6.70056 13.2024 6.60352 13.3417C6.44045 13.5759 6.16952 13.7157 5.87906 13.7157C5.57407 13.7157 5.33431 13.5842 5.07721 13.3446C4.94318 13.2196 4.81022 13.0702 4.68602 12.914C4.5629 12.7591 4.44612 12.5946 4.35011 12.4311C4.19465 12.1664 4.12256 11.9502 4.12256 11.7345C4.12256 11.3165 4.25359 10.7759 4.52095 10.0776C4.68487 9.64943 4.90197 9.15761 5.16858 8.61012C5.08018 8.53522 5.00934 8.448 4.92614 8.32867C4.83932 8.20418 4.74473 8.04526 4.65891 7.87998C4.43186 7.44259 4.2889 7.02569 4.2889 6.67031C4.2889 6.26815 4.5262 5.8652 5.08951 5.27678C5.44848 4.90181 5.94366 4.45316 6.48486 4.01231C7.01814 3.5779 7.56278 3.17781 8.01957 2.88506C8.71549 2.43906 9.1182 2.28711 9.46424 2.28711C9.73291 2.28711 9.98581 2.40949 10.1574 2.62113C10.2197 2.69794 10.2709 2.7853 10.3139 2.88707C10.3795 3.04212 10.4303 3.24345 10.4694 3.47482C10.5215 3.46483 10.5753 3.45965 10.631 3.45965C10.9691 3.45965 11.2945 3.63001 11.4766 4.0608C11.5418 4.21524 11.5928 4.40873 11.6318 4.61645C11.6587 4.61392 11.6859 4.61264 11.7136 4.61264C11.9777 4.61264 12.2277 4.73103 12.3992 4.93603C12.5006 5.05713 12.7594 5.96722 12.723 6.33579C12.6987 6.58098 12.6178 6.80536 12.2573 7.71159L12.2166 7.81411C12.0787 8.16257 11.9911 8.39799 11.9243 8.60863C11.8218 8.93182 11.7459 9.29576 11.6942 9.66825C11.6602 9.91313 11.6388 10.1597 11.6388 10.2285C11.6388 10.7075 11.258 11.0859 10.7737 11.0859C10.4236 11.0859 10.1302 10.9063 9.70223 10.4516C9.64559 10.3914 9.59056 10.3301 9.53958 10.2704C9.45776 10.5938 9.41536 10.9129 9.41536 11.2153C9.41536 11.7013 9.03167 12.0859 8.54301 12.0859C8.25076 12.0859 8.02289 11.9661 7.7646 11.7364C7.63734 11.6232 7.50739 11.487 7.38377 11.3444C7.29841 11.2459 7.21685 11.1447 7.1457 11.0491C6.89886 11.771 6.76133 12.4268 6.76133 12.8256ZM10.7036 7.02991C10.3149 7.8798 9.97008 8.8645 9.97008 9.43761C9.97008 9.57205 10.8052 10.4695 10.8052 10.2285C10.8052 8.70712 11.7859 6.64513 11.8841 6.52318C11.9725 6.43631 11.8659 5.42905 11.7133 5.42905C11.6659 5.42905 11.1843 5.84267 10.6961 6.26203C10.4259 6.49409 10.1537 6.7279 9.95185 6.89435C10.3674 6.1035 10.7524 5.54797 10.8406 5.43863C10.9407 5.34048 10.7613 4.27606 10.6307 4.27606C10.5865 4.27606 10.0755 4.7534 9.55613 5.23852C9.22564 5.54724 8.89178 5.85911 8.67271 6.05311C9.16637 5.22109 9.58129 4.63844 9.68632 4.51185C9.77783 4.42216 9.63068 3.10352 9.46395 3.10352C8.72892 3.10352 5.12191 6.01212 5.12191 6.67022C5.12191 7.15909 5.76829 8.19945 5.76829 7.98754C5.76829 7.3144 7.29015 5.52832 8.36937 4.63594C7.03171 6.74035 4.95556 10.4144 4.95556 11.7344C4.95556 12.029 5.92773 13.2015 5.92773 12.8255C5.92773 11.3803 7.19402 8.00322 9.04223 6.57357C8.31718 7.92342 7.62897 9.50359 7.62897 10.2301C7.62897 10.4308 8.58176 11.5223 8.58176 11.2152C8.58176 9.67661 9.458 7.94881 10.7036 7.02991Z" fill="#FFBD42"/>
</svg>
